<!--?xml version="1.0" encoding="utf-8"?-->
<!-- Generator: Adobe Illustrator 18.1.1, SVG Export Plug-In . SVG Version: 6.00 Build 0)  -->

<svg version="1.1" id="_x32_" xmlns="http://www.w3.org/2000/svg" xmlns:xlink="http://www.w3.org/1999/xlink" x="0px" y="0px" viewBox="0 0 512 512" style="width: 256px; height: 256px; opacity: 1;" xml:space="preserve">
<style type="text/css">
	.st0{fill:#4B4B4B;}
</style>
<g>
	<path class="st0" d="M497.546,252.362c-0.285-0.895-0.424-1.856-0.424-2.816c0-0.977,0.138-1.937,0.424-2.857l13.363-43.623
		c0.741-2.408,1.091-4.866,1.091-7.3c0-3.468-0.717-6.886-2.108-10.035c-1.367-3.15-3.435-6.039-6.104-8.392l-0.008-0.016
		l-0.016-0.008c-4.273-3.752-9.685-5.746-15.13-5.738c-3.81-0.008-7.667,0.977-11.126,2.914l-74.338,41.621
		c-36.534-27.102-73.093-44.827-108.528-55.131c-0.448-2.124-1.042-4.37-1.742-6.698c-1.278-4.191-2.929-8.619-4.81-12.786
		c-0.936-2.067-1.937-4.085-3.003-5.974c-1.058-1.888-2.181-3.662-3.418-5.289l-0.008-0.008c-1.156-1.522-2.572-2.759-4.078-3.711
		c-2.254-1.441-4.68-2.278-7.17-2.816c-2.49-0.529-5.079-0.724-7.789-0.724c-5.542,0-11.654,0.879-18.246,2.36
		c-9.872,2.23-20.795,5.892-31.798,10.482c-10.466,4.37-20.965,9.603-30.576,15.325c-3.752,0.463-8.001,1.172-12.55,2.043
		c-15.707,2.995-34.946,7.861-45.51,10.726l2.002,7.366l-2.408-7.244c-28.624,9.531-53.78,22.862-74.29,37.641
		c-10.271,7.39-19.37,15.146-27.167,23c-7.813,7.854-14.324,15.805-19.386,23.635L0,252.443l2.678,4.151
		c5.12,7.911,11.704,15.927,19.606,23.846c11.85,11.882,26.663,23.545,43.957,34.036c17.229,10.45,36.933,19.72,58.598,26.825
		c4.924,1.97,10.882,3.719,17.588,5.347c10.238,2.466,22.121,4.582,33.742,6.136c10.117,1.342,19.988,2.278,28.42,2.62
		c0.7,0.758,1.441,1.506,2.271,2.198l30.926,25.97l0.058,0.049c4.256,3.597,9.53,5.412,14.731,5.404c3.312,0,6.608-0.732,9.66-2.157
		c3.044-1.416,5.82-3.54,8.09-6.266l0.008-0.008l4.428-5.355h-0.008c3.694-4.46,5.624-10.035,5.624-15.715
		c0-1.758-0.179-3.533-0.554-5.282c-0.456-2.084-1.164-4.061-2.108-5.925c42.044-9.604,86.033-29.38,129.908-62.847l69.887,39.114
		c3.458,1.945,7.3,2.914,11.117,2.914c5.453,0.016,10.874-1.986,15.154-5.762c2.678-2.36,4.746-5.25,6.112-8.399
		c1.392-3.149,2.108-6.56,2.108-10.026c0-2.426-0.35-4.9-1.091-7.309L497.546,252.362z M58.672,291.232
		c-9.751-6.99-18.336-14.283-25.588-21.566c-5.802-5.812-10.742-11.623-14.747-17.214c3.964-5.526,8.83-11.263,14.552-17.034
		c10.751-10.808,24.457-21.682,40.555-31.513c15.472-9.456,33.182-17.937,52.6-24.587c12.509,21.755,19.72,47.254,19.72,74.616
		c0,26.312-6.705,50.907-18.384,72.116C100.91,317.129,77.594,304.783,58.672,291.232z M482.961,256.854v-0.007l13.363,43.63v0.008
		c0.285,0.919,0.424,1.872,0.424,2.824c0,1.351-0.285,2.685-0.806,3.882c-0.529,1.204-1.302,2.254-2.246,3.092
		c-1.53,1.334-3.288,1.953-5.07,1.961c-1.245,0-2.474-0.301-3.671-0.968l-78.7-44.071l-3.996,3.125
		c-48.474,37.894-96.508,57.939-141.62,65.874l-10.523,1.856l-15.162-6.536l-3.231,7.463l27.24,11.752l1.114,0.504h0.008
		c2.328,1.066,4.2,3.321,4.818,6.194v0.024v0.008c0.146,0.675,0.22,1.359,0.22,2.051c0,2.214-0.774,4.378-2.116,5.982l-0.016,0.024
		l-4.404,5.323c-0.846,1.008-1.798,1.725-2.824,2.205c-1.018,0.472-2.1,0.716-3.19,0.716c-1.709-0.008-3.394-0.553-4.916-1.831
		l-31-26.035l-0.017-0.008c-0.642-0.537-1.228-1.228-1.742-2.051l-2.197-3.5l-4.126-0.082c-5.543-0.114-12.249-0.569-19.403-1.294
		c-10.718-1.115-22.471-2.848-33.059-4.948c-5.29-1.042-10.295-2.198-14.706-3.378c-2.254-0.61-4.362-1.228-6.267-1.847
		c11.94-22.113,18.768-47.643,18.768-74.867c0-28.07-7.227-54.342-19.826-76.935c6.365-1.652,14.324-3.638,22.333-5.469
		c5.428-1.246,10.906-2.409,15.902-3.354c4.98-0.96,9.522-1.692,12.981-2.059l1.692-0.178l1.457-0.879
		c12.338-7.496,26.776-14.299,40.254-19.158c6.722-2.426,13.217-4.37,19.045-5.69c5.81-1.318,10.986-1.985,14.876-1.985
		c2.531-0.016,4.5,0.293,5.64,0.667c0.578,0.179,0.944,0.358,1.115,0.488l0.162,0.106c1.025,1.343,2.295,3.459,3.508,5.908
		c1.855,3.704,3.629,8.18,4.94,12.306c0.651,2.067,1.188,4.029,1.587,5.746c0.382,1.718,0.618,3.198,0.683,4.11l0.407,5.371
		l5.193,1.417c36.249,9.912,74.013,27.964,112.085,56.921l3.972,3.02l83.038-46.479c1.196-0.668,2.426-0.977,3.679-0.977
		c1.774,0,3.532,0.618,5.062,1.945c0.944,0.854,1.717,1.904,2.246,3.093c0.521,1.204,0.806,2.539,0.806,3.898
		c0,0.944-0.138,1.896-0.424,2.84l-13.363,43.615c-0.724,2.384-1.091,4.85-1.091,7.324
		C481.87,251.996,482.237,254.462,482.961,256.854z" style="fill: rgb(75, 75, 75);"></path>
	<path class="st0" d="M88.336,238.673c-5.933,0-10.742,4.802-10.742,10.743c0,5.941,4.809,10.759,10.742,10.759
		c5.95,0,10.759-4.818,10.759-10.759C99.096,243.475,94.286,238.673,88.336,238.673z" style="fill: rgb(75, 75, 75);"></path>
</g>
</svg>
