
<?xml version="1.0" encoding="UTF-8"?> <!-- Generator: Adobe Illustrator 23.1.1, SVG Export Plug-In . SVG Version: 6.00 Build 0) --> <svg xmlns="http://www.w3.org/2000/svg" xmlns:xlink="http://www.w3.org/1999/xlink" id="icon" x="0px" y="0px" viewBox="0 0 1000 1000" style="enable-background:new 0 0 1000 1000;" xml:space="preserve"> <path d="M1000,332.1l-240.7,81.6c-9.3,2.8-26.6,5.9-40.3-3.8c-27.4-19.6-54.8-37.5-82-53.5v-65.9c-72.5-59.3-163.4-87.7-286.5-88 l-39.1,58.7c-43.7,3.6-85.1,15.5-123.5,35.5c-37.1,19.4-71.3,46.3-101.7,80C35,433.6,8.5,500,8.5,500S35,566.4,86.4,623.4 c30.4,33.7,64.6,60.6,101.7,80C234.7,727.7,285.8,740,340,740c25.4,0,50.9-2.7,76.2-7.5l59.9,57.8c45-12.2,118.9-43.8,161.4-71.7 v-75.2c28.1-16.6,54-33.7,77.2-50.1c7.1-5,19.1-10.7,42.8-2.3l242.6,98.8V660c0-79.8-35.1-135.3-54.1-159.6 C965.1,477.6,1000,427,1000,360V332.1z M602.1,305.2v31.5c-17.6-9.4-35.2-18.1-52.5-25.8c-69.9-31.4-135.7-48.3-195.9-50.6 l16.6-25.7C443.1,234.7,552.1,262.7,602.1,305.2z M602.5,699.2c-25.1,18.8-76.3,41.7-116.2,52.3L456.8,723 c51-14.1,100.4-35.7,145.7-59.9V699.2z M900,495.3v9.1c0,0,48.8,47.9,57.9,125l-185.8-75.7l-0.8-0.3c-30.7-11-57.6-8.7-79.8,7.2 C532.2,675,423.2,707.8,332.7,699.9c19.2-32.8,44.1-89.5,44.1-163.9c0-101.4-33.7-162.9-33.7-162.9l-31.8,7.6 c0.1,0.1,30.6,55.3,30.6,155.3c0,81-31.9,137.1-48.1,160.4c-30.3-4.7-59.3-14.1-86.4-28.2c-32.8-17-63.1-40.8-90.3-70.7 c-36.6-40.3-57.6-81.3-65.1-97.6c7.6-16.3,28.5-57.3,65.1-97.6c27.2-29.9,57.5-53.7,90.3-70.7C247.9,310.7,292.6,300,340,300 c58.2,0,123.2,15.9,193.2,47.3C586,371,640.7,403,695.8,442.4c20.3,14.5,47.8,18,75.5,9.5l0.3-0.1l185.7-62.9 C947.5,451.6,900,495.3,900,495.3z M229.9,460.2c0,16.6-13.4,30-30,30c-16.6,0-30-13.4-30-30c0-16.6,13.4-30,30-30 C216.5,430.2,229.9,443.6,229.9,460.2z M420,462.5h118v135h-17.5c-49.2,0-83.5-15.4-106.9-41.2l3.3-17 c30.3,19.3,65.5,23.7,86.1,23.7v-67.5h-83V462.5z"></path> </svg> 